<svg xmlns="http://www.w3.org/2000/svg" width="24" height="22" viewBox="0 0 24 22"><defs><style>.a{fill:#fff;}</style></defs><path class="a" d="M12,7.09l2.45,1.49L13.8,5.77,16,3.89l-2.89-.25L12,1,10.87,3.64,8,3.89l2.18,1.88L9.5,8.58,12,7.09m-8,6,2.45,1.49L5.8,11.77,8,9.89,5.11,9.64,4,7,2.87,9.64,0,9.89l2.18,1.88L1.5,14.58,4,13.09m16-3,2.45,1.49L21.8,8.77,24,6.89l-2.89-.25L20,4,18.87,6.64,16,6.89l2.18,1.88-.68,2.81L20,10.09M15,23H9V10h6V23M7,23H1V17H7v6m16,0H17V13h6Z" transform="translate(0 -1)"/></svg>